/* XPM */
static char *b2b33ec8c99a48d6aef4488dbb9e2ce2[] = {
/* columns rows colors chars-per-pixel */
"64 64 160 2 ",
"   c #020507",
".  c #03060A",
"X  c #050A0D",
"o  c #080A0E",
"O  c #060D11",
"+  c #090E12",
"@  c #070F19",
"#  c #061115",
"$  c #0A1115",
"%  c #07141A",
"&  c #0B151A",
"*  c #07181F",
"=  c #0B191E",
"-  c #11161B",
";  c #13191E",
":  c #191A1E",
">  c #071721",
",  c #0A1720",
"<  c #071B21",
"1  c #0C1C23",
"2  c #0D1E2B",
"3  c #121D22",
"4  c #1A1D22",
"5  c #111F2C",
"6  c #072127",
"7  c #0C2126",
"8  c #0C242B",
"9  c #0B282F",
"0  c #0D292E",
"q  c #0F292E",
"w  c #0D292D",
"e  c #122226",
"r  c #1B2125",
"t  c #122529",
"y  c #10212F",
"u  c #11262F",
"i  c #13252A",
"p  c #1C242B",
"a  c #10292D",
"s  c #10292E",
"d  c #142A2E",
"f  c #192A2D",
"g  c #0F2230",
"h  c #0D2630",
"j  c #0C2731",
"k  c #0E2630",
"l  c #0F2534",
"z  c #0D2930",
"x  c #0D2931",
"c  c #0E2930",
"v  c #0D2A31",
"b  c #0E2B33",
"n  c #0E2C31",
"m  c #0F2C33",
"M  c #0C2B34",
"N  c #0F2B36",
"B  c #0F2E35",
"V  c #0F2E36",
"C  c #0C2C34",
"Z  c #112433",
"A  c #102135",
"S  c #122437",
"D  c #122637",
"F  c #152431",
"G  c #1D2633",
"H  c #102A30",
"J  c #122A31",
"K  c #102A33",
"L  c #122B32",
"P  c #122C31",
"I  c #132D32",
"U  c #112D33",
"Y  c #112A37",
"T  c #102D37",
"R  c #172E36",
"E  c #142D32",
"W  c #1B2B33",
"Q  c #13273A",
"!  c #132839",
"~  c #14293B",
"^  c #192D3B",
"/  c #0F343A",
"(  c #0E323A",
")  c #0D383F",
"_  c #163233",
"`  c #193137",
"'  c #193335",
"]  c #113138",
"[  c #113239",
"{  c #10313A",
"}  c #13333B",
"|  c #143339",
" . c #11353B",
".. c #15313F",
"X. c #12343E",
"o. c #13343A",
"O. c #1A363A",
"+. c #103A3E",
"@. c #16393F",
"#. c #123C3F",
"$. c #15393C",
"%. c #1B3B3C",
"&. c #22262C",
"*. c #22282D",
"=. c #242C32",
"-. c #282E31",
";. c #233539",
":. c #29343A",
">. c #243A3D",
",. c #1D403E",
"<. c #172F41",
"1. c #163241",
"2. c #113444",
"3. c #163444",
"4. c #163546",
"5. c #183042",
"6. c #183544",
"7. c #143A40",
"8. c #133C43",
"9. c #163E43",
"0. c #143842",
"q. c #193E43",
"w. c #183B44",
"e. c #1C3E42",
"r. c #143F48",
"t. c #213E40",
"y. c #2B3E41",
"u. c #303B42",
"i. c #1C4242",
"p. c #13434B",
"a. c #1D474C",
"s. c #19434B",
"d. c #1F4452",
"f. c #214543",
"g. c #294446",
"h. c #214846",
"j. c #24464B",
"k. c #234C4B",
"l. c #2C4E4E",
"z. c #334349",
"x. c #3B474D",
"c. c #24514E",
"v. c #28554F",
"b. c #234F52",
"n. c #2E4D54",
"m. c #255452",
"M. c #295351",
"N. c #235E57",
"B. c #295853",
"V. c #2E545D",
"C. c #2B5C5B",
"Z. c #375053",
"A. c #315A57",
"S. c #306F66",
"D. c #3B7D74",
"F. c #436667",
"G. c #388076",
"H. c #52A396",
"J. c #51A999",
"K. c #63BEAE",
/* pixels */
"O O O X X . . . . . . . .   . X X $ 8 Y ....1.6.4.2.d.4.5.<.~ S A S Q ~ ! Q Z y 2 , $ $ & $ + O X . . . . . . . . . . . X X X O ",
"O O O X X . .   . . . . . . X O + $ , 2 2 8 8 g g l Z 2 5 2 2 5 5 5 5 2 2 2 2 1 < 1 1 < * $ + O X X . . . . . . . . . . . X O O ",
"O O o X X . . . . . . . . . X O O + @ % < 2 8 8 8 L h 9 8 7 7 8 8 8 1 7 8 8 9 L 1 9 L 1 1 & + X . . . . . . . . . . . . . X o o ",
". X . . . . . . . . . . . . O O * 1 n q.q.T { h N a.@.9 9 9 n | | m n n L ' 9.8.8 { 0.1 > 8 $ X . . . . . . . . X . . . . . . . ",
". . . . . . X X X X X o . . X O t 1 1 h h N X.9 h P P 8 7 1 1 8 7 7 8 8 s 8 #.+.8 N  .1 1 n.$ X . . X X O O X X o X . . . . . . ",
". . . . . . X o O O O O . . X O * < , 1 1 1 8 1 7 6 < * + O O + O O O + % < V / 2 8 n % % O X X . . . X X O O X o X . . . . . . ",
". . . . . X X X X X X X . . . O 1 7 q P L 8 8 * 7 { w.R & . X O O X X . s q V { 2 2 i % + O X $ O . . + X X X X X X . . . . . . ",
". . . . . X X X . X . . . . . O 7 7 8 9 9 9 8 * 1 T { < O X X J d $ X O q ( ( { 1 1 Z & $ $ + & * X . . .     . X X X . . . . . ",
". . . . X X X X . . . . . . . + s 9 T T T 8 t % < 8 9 9 < * 1 1 1 3 & 1 9 N { { 1 1 s 7 3 = & = * 1 i O .     . X X X X . . . . ",
". . . . X X X .     . . . X X + 8 7 8 8 9 8 e % * q q s 6 * 1 1 1 1 1 8 { r.s.{ 1 1 i + . X X = * 8 @.8 X .     X O X X . . . . ",
". . . . X X X .   . . . X O X + P T w.e.X.n 7 % * 7 < 1 6 * 1 W W i < 8 ( p.p.0.1 1 s * & $ $ = 1 8 s.C 8 % . . X O O X . . . . ",
". . . . X X X . . . . X X & O + q 9 9 9 q j.8 % * 8 < 1 6 1 e i f i = 8 ( p.p.0.1 1 s d _ 7 & * * 1 9 6 7 1 O . X X X X . . . . ",
". . . . X X X X X X X X X X X + 8 w 6 8 8 q.7 $ * 7 1 7 6 1 e e e e < 7 ( ) 0.T < < s # 7 * $ 1 * 6 6 < * * % O X O O X . . . . ",
"X . . . X X X X X X X X X X O + s 8 6 8 8 q 8 & * 6 < 1 < 1 e i e e < < * * 1 J < 1 s 1 1 = * < < < < 6 6 6 1 # X + O X . . . . ",
"X X . . . X X X X X X X X X X + 1 1 6 8 8 8 1 * * 6 6 < % 1 1 e 7 2 1 1 < * 1 i < < q & & & $ 3 1 1 1 8 w 8 7 & X . . . . X . . ",
"X X X X . . . X X X X X X X X + = * 1 1 1 1 1 * * 6 @.O.1 1 8 7 7 2 1 1 @.i.@.i % * t O . . . = * * * 1 7 1 = # . X X X X X X X ",
"X X O + $ $ + . X X X X X X X O & & < 1 < * < * * 6 e.O.1 1 ; ; = 3 1 1 O.%.O.L < * 8 $ $ + O = & % % # # $ + O O p $ $ + + O X ",
"O + + = = & $ . X X X X X X O O $ & 1 1 1 1 < * * * * & & & 1 1 = * * = * * * E * % 7 X X . X * & & & 1 1 * * # O f f d 3 & $ $ ",
"+ $ $ 1 t y.$ . X X X X X X O O $ $ * * % % % & * * O O 3 i 5 5 i 1 y + O O O P * * 7 O X + X & # # % % & # O O O e Z.%.f 3 3 = ",
"& & 1 3 e 7 & X X X X X X X X O $ $ * * * * * & * & + O d W G G G F ^ % O + O q * & 7 X X + X & + # # & # # $ O O i t d i 3 3 1 ",
"& = 1 3 e 1 * X X X X X X . X O $ $ $ $ $ & & $ & & # + 3 1 3 3 3 y W & & & & E * & 1 O + + X $ + # # # # # O O $ i i W W W i e ",
"1 s l.' t t 1 O X X X X X . X X + $ $ $ $ $ & $ # 1 u.x.p p p p p =.W =.z.z.y.' * $ 1 X . X . + + + # # $ $ O X $ d t O.%.A.' i ",
"7 8 s d d d e O X X X X X . X X # = $ $ $ $ $ + + 3 :.:.r r r p p p p =.>.y.;.W & $ = $ + + X O O # # $ $ $ $ O + d i k.$.' P f ",
"t d W E s s e O O O O X X X X X O 1 + + O # & + O O X X X X X $ $ X X O O O O O O $ $ O O X . O O O O O O O O X + d i M.%.%._ E ",
"e s s s s d t X X X + o X X X X O $ O + + $ 3 + O X . . . X . ; X . . . X . X o X $ & O X X X $ O X O O + + + + + d d O.O.O.' _ ",
"' f.f.k.%.E f X X X X X X X X X X O O + + & & + X X . . . X . X . . . X X . X X X O & ; $ $ X + O X O O O O X X + f d P _ _ ' ' ",
"%.f.h.c.,.d e X X X X X O X X X X O X X X = $ O X X r &.&.p ; ; & 4 &.&.*.*.+ X . X $ $ $ $ + X X X X X O + X . . + e M.k.M.B.%.",
"%.%.i.M.,.d e $ X X X X X X X X X O O X O + O + X X & - - - = & & ; - ; ; 3 + X X . # O . X . X X X X X O O X $ O O t m.C.c.v.%.",
"%.f.k.c.,.E W = + O X O O X X X X X X X X + O + X X - 3 ; 3 %.i.$.e & ; ; 3 $ O . . $ O O X . o O O X O + + X $ + O t m.m.k.B.f.",
"%.f.i.k.i.a e O O O X X X X X X X X X X X + O $ O X - 3 3 i D.K.H.f.= ; ; ; $ O o o $ + O X X X O O X X X X X X + 3 d M.C.c.B.i.",
"O.e.e.i.e.s d O O O X o o X X X X X X X X + + + X X - 3 3 e N.J.G._ & - ; ; $ O . + $ $ O O O X X O + O X X X X $ i E k.M.B.B.i.",
"%.%.O._ O.j.e.6 $ O X X X X X X X X X X O $ + + X X - ; ; e i.S.C._ & ; ; ; $ + X $ # O . .   X X O + X X + O O < q i.%.%.h.i.%.",
"O.O.O._ O.{ V.' $ X X X X X X X X X X X X + O + X X - - - ; s %.%.7 & - - ; $ O X & + + + X . X O O O X + + X X R C.b.%.%.h.,.%.",
"' ' %._ O.e e O X X X X X X X X X X X O O + O + X X & - & & e f f = & & & - $ O X $ + + O X . X X X X X X X X X + e d %.%.k.%.%.",
"E _ %.E O.e e O X X X X X X X X X X X X X $ + O X X - - - & 3 3 3 & & ; ; ; $ + X $ + O X X . X X X X X X X X X + 3 d %.%.e.O.%.",
"O.O.%.g.' e 3 O X X X X X X X X X X X X O $ + + X X &.&.*.- X X X X & p r 4 + O X O O O + + X X X X X X X X X O + 3 t %.f.f.f.>.",
"i i d _ E 7 3 O X X X X X X o X . X X X X + O + X . & - 3 - $ + O O & ; ; - X . . X O O X X . X X X X X X X X X # 3 d _ %.%._ _ ",
"; e t i _ 1 3 O X X X o o X X X . X X X X $ O O X . -.-.&.-.*.4 - - ; p &.; X . . . + $ X X . X X X X X X X X X O e d ' %.O._ W ",
"3 e e t _ = ; X X X X o o X X X . X X O O $ O X X . & & & & & $ $ $ $ $ $ + . . . X $ $ + X . X X X X X o X X X O e d E O._ d f ",
"= 3 e e f = ; O . X X X X X X X X X X + + $ O X X . . . .                 . . . . . + $ X . . X X X X X o X X X O e E ' _ f s d ",
"& y.f i ;.= ; O X X X X X . X X X X X X X $ O O X . . . . . . . . . .     . . . . X O O + + + X . X X X o X X X X = t O.t.F.d e ",
"& 3 1 = 3 = ; O X X X X X . X X X X X X X # O O X X r 4 r r ; ; ; : o o o + $ . . . X X X X . X X X X o o . X . X & e f d E 1 1 ",
"+ & = = ; = = X X X X X X X X X X X X X O O X X X $ & ; ; ; ; ; ; ; - - - 4 4 X X X O O O O X X X X X X X X X . X & e i t e 3 = ",
"X $ $ = = & = o X X X X X X X X X O X O O $ + O X $ :.f 3 + + + + $ ; - 4 &.&.o X X $ X O O X o X X X X X X . X X 3 e i e = * $ ",
"o + # & 1 & = o X X X X X X . . X X X X O $ + X X $ $ & & + + + + $ ; ; - + + & + X $ O X X X o X X X X X O X X X 3 e e 3 * & $ ",
"o O + # x.= = o X X X X X X X . X O O O + $ O X X $ O O $ $ $ $ $ $ ; : $ O O = $ X $ O O + X o X X X X X O + X X 3 f y.& & & & ",
". X X O & + + X X X X X X X X X X O O O + $ + O X $ O O $ $ & $ + $ ; : & 1 1 * $ X $ O O O X o X X X X X X + + + 3 = & # + O O ",
". . X O + .   . X X X X X X X X X X O O O O + O X & d & $ & & $ $ $ ; 4 & 6 1 = O X $ O O O X X X X X X X X + + + 3 & $ + + O X ",
". . X X X X   . X X X X X X o o X X X X X O O O O * s % O $ $ + $ $ ; 4 - 1 1 < % O $ O O O . o X X o X X X X X X X . . . . X O ",
". . . . . .   . X X X X X X o o X X $ X X X X X O * E & O + + + + + ; 4 - + % < % + # X X X . o X X o o X X X X X O O X . . X O ",
". . . X X O O X . X X X X X X X X X $ O X X X X X & * # $ $ $ $ $ $ & & & = * * % + + O + + o X X X X X X X . . X O O X . . . X ",
". . . X X O O O . . X X X X X o X X $ O X X X X X & O O O O O O O O O O O X $ * % O & + + + X X X X X X O X . . X + O X .   . . ",
". . . X O O + + . . . X X X X X X X $ + X X X X X = # O X X X O O O O O O X $ < $ O $ X X o X X X X X X X . . . X + O X .   . . ",
". . . X O O + O . . . . X X X X X X $ O X + X X X & 1 $ O O O O O O O O O O $ < % O $ X X X X X X O X o .   . . X O X X .   . . ",
". . . X O O O O . . . . . X X X X X $ X O + X X X & # # $ # # # # # # # # # $ 1 % O $ + + O X X X X O X .   . . . X X . .   . . ",
". . . X O O + O . . . . . . X X X X $ O O $ X X X & O . . . . O O X . . . . # 1 % O + X X . X X X X X . . . . . . . . . . . . . ",
". . . . . X X X X . . . . . . . . . + O O O O X X & $ + . . . X X X . . : o $ 1 # + $ + O X X X X X . . X X . . . . . . . . . . ",
". . . . . . X X X X X . . . . . . X O X X X O X X & $ X .   . . . .     o . $ 1 # O & & . X . . . . . X o . . . . . . . . . . . ",
". . . . . . X X X X X X . . . . . X O X . X O O X * X . . . . + + . . . . . & 1 # O & $ O X X . . . . X o . . . . . . . . . . . ",
". . . . . . X X X X X X . . . . . O $ X . . O X X * 1 & O $ $ $ $ $ $ $ $ & 1 1 # + & + O r $ . . . X X o . . . . . . . . . . . ",
". . . . . . . . . . . . . . . . . X X X . . O O O & * * * * * * * * & * * = 1 < $ + & + O ; X . . . . . . . . . . . . . . . . . ",
". X . . . . . . . . . . . . . . . . X X X X + O O O # # # # $ # # # # $ $ $ % & + + & O X X X . . .   . . . . . . . . . . . . . ",
". X . . . . . . . . . . . . . . . . . X X X O O O X O O O O O O O O O O O O O O O O + X X o X . . .     . . . . . . . . . . . . ",
"X X . . . . . . . . . . X . . . . . . X X X X X O O O O O O O O + O O O O O O O O O O o o o X . . .     . . . . . . . . . . . . "
};
