/* XPM */
static char *sprite[] = {
/* columns rows colors chars-per-pixel */
"64 64 99 2 ",
"   c #020507",
".  c #03060A",
"X  c #050A0D",
"o  c #080A0E",
"O  c #060D11",
"+  c #090E12",
"@  c #070F19",
"#  c #061115",
"$  c #0A1115",
"%  c #07141A",
"&  c #0B151A",
"*  c #07181F",
"=  c #0B191E",
"-  c #11161B",
";  c #13191E",
":  c #191A1E",
">  c #071721",
",  c #0A1720",
"<  c #071B21",
"1  c #0C1C23",
"2  c #0D1E2B",
"3  c #121D22",
"4  c #1A1D22",
"5  c #111F2C",
"6  c #072127",
"7  c #0C2126",
"8  c #0C242B",
"9  c #0D292D",
"0  c #122226",
"q  c #1B2125",
"w  c #13252A",
"e  c #1C242B",
"r  c #142A2D",
"t  c #192A2D",
"y  c #0E2531",
"u  c #0D2B33",
"i  c #122435",
"p  c #1D2633",
"a  c #132D32",
"s  c #1B2B33",
"d  c #13273A",
"f  c #14283A",
"g  c #192D3B",
"h  c #0F333A",
"j  c #0D383F",
"k  c #153233",
"l  c #193335",
"z  c #13333B",
"x  c #1A363A",
"c  c #143A3D",
"v  c #1B3B3C",
"b  c #21262C",
"n  c #22282D",
"m  c #242C32",
"M  c #282E31",
"N  c #233539",
"B  c #29343A",
"V  c #243A3D",
"C  c #1D403E",
"Z  c #172F41",
"A  c #153444",
"S  c #183343",
"D  c #143A42",
"F  c #1B3D42",
"G  c #143F48",
"H  c #213E40",
"J  c #2B3E41",
"K  c #303B42",
"L  c #1C4242",
"P  c #13434B",
"I  c #1B454C",
"U  c #1F4452",
"Y  c #214543",
"T  c #294446",
"R  c #214846",
"E  c #24464B",
"W  c #234C4B",
"Q  c #2C4E4E",
"!  c #334349",
"~  c #3B474D",
"^  c #24514E",
"/  c #28554F",
"(  c #234F52",
")  c #2E4D54",
"_  c #255452",
"`  c #295351",
"'  c #235E57",
"]  c #295853",
"[  c #2E545D",
"{  c #2B5C5B",
"}  c #375053",
"|  c #315A57",
" . c #306F66",
".. c #3B7D74",
"X. c #436667",
"o. c #388076",
"O. c #52A396",
"+. c #51A999",
"@. c #63BEAE",
/* pixels */
"O O o . . . . . . .   .     . . o % 2 i z Z S A A A U A A Z d d i d d f f d i i 2 > $ % $ & @ O . . . . . . . . . . . . o o o o ",
"o O + . X X X . . . . . . . . X @ @ * 2 2 8 2 y i y i 2 2 2 2 5 5 2 2 2 2 2 2 1 , 2 2 , , & O O o . . . . . . . . . . . . . o o ",
"o O O . . . . X . . .   . . O O O O @ * > 2 8 2 y u y y 8 2 2 9 2 2 2 6 8 6 8 a < 8 a 2 , & @ o . . . . . . . .   . . . X o o o ",
"X o . . . . . . .     . . . X O * 1 u F G f z y u I c y 9 9 9 z z a y u u g F D 2 z D 1 > 5 @ . . . . . . . . . . . . . . . . . ",
". . . .   . . o O O O o . . O O 0 1 6 y y u z y y u a 9 7 7 < 8 7 1 w 8 w 9 c j 6 u j 1 = ( & X . . o o O O X X o . . . . . . . ",
". . .   . . . o o o o O . . X O * 1 , 1 1 2 9 1 8 6 > * O O O O O O O @ * > u h 2 6 y * $ # X X . . . O X o O O o X . . . .   . ",
". . . . . X X o O O O . . . . O 1 7 9 u a 8 7 = 7 z F g & . X O O O . X 9 9 h z 2 2 9 % @ X X $ O . . O O . . . X O . . . . . . ",
". . . . . X X X . X . X . . . O 7 6 8 9 y 8 8 * 1 a z > O X O a r @ . O 9 h h z < 2 w & & $ O = * . . . . . . . . o . . .   . . ",
". . . . . O O . . . . . . . . @ r 8 u u z 8 w % , 8 9 9 > = 3 1 1 3 & 1 y u h f 2 2 9 7 7 = & = * 7 r X .   .   O O o . . . . . ",
". . . X . . X . . . . . . o . @ 9 8 8 8 8 8 0 % * 9 9 9 6 = 1 1 1 1 , w h G G z < < w # X X X & = 8 c 9 . .     o o o o . . . . ",
". . . X O O O X . . . . X X o # u u D L z a 7 % = 8 > 7 7 * 1 s m w 1 8 h G P D < 1 r = # # & = 1 8 P u 6 %   . o O O O       . ",
". . . . . . O . . . . . X & o @ 9 9 9 9 9 I 8 % = 7 1 1 1 1 3 w t w = 8 h P P D 2 1 r r k 0 & & % 6 9 6 8 , # X X O . . . .   . ",
". . . . . O X o . . o X X X X @ 9 9 7 8 6 F 6 $ , 8 1 8 7 , 0 w 0 0 = 8 h j D a < < 9 # 7 = & 7 * 7 6 6 * * * X . O O o   . . . ",
". . . . X . O . O X X X X O O O 9 9 7 7 8 9 9 & = 6 1 1 , 1 0 w w 0 1 , * = , a < < r 1 7 = & = < < < 7 7 7 = # O O O . . . . . ",
". X . . . O O o O . X X O X o O 1 1 6 8 8 8 7 * & 7 7 6 * , 1 7 0 2 1 1 , , 1 i > , 9 & & & $ 0 < < < 7 9 8 7 & o . . . . . . . ",
"o X . o . . . . O O X X . o O O - * 1 1 1 1 1 & * 7 z v w 1 8 8 1 8 2 1 c L c 9 > > w o . . o = = * = 7 7 1 & @ . o O . O O . . ",
"X X O + $ $ + . X o o X o X O X & = 1 1 < < = * * 7 F x = 1 ; ; = 7 = 7 x c x u = = 7 $ $ o X = % # % # # $ # O o t $ = O $ X X ",
"O O @ & = & $ . X X o o O X X O $ & = 7 1 1 1 % = = * % % & = ; = & = & * * * r = = 7 X X X X = % % & 7 7 = = # O t t q 3 = & & ",
"$ @ $ 1 w J $ . X O X X X X X O $ & & * * % * & * * O O 0 w 5 5 w 3 5 @ O O O a = * 0 O X o X = % # # = # # # X X 0 | C e 0 ; = ",
"$ - 3 3 0 7 & O X X X O X X X O $ $ & & * = & % * * O O r p p p p i g # o @ O r < # 0 O O o X # # # # # # # # # # 0 0 t w 0 3 = ",
"- = 1 3 0 1 = X X O X X X X X X $ $ $ & $ & % & & % # @ 3 3 3 3 3 5 g & - - $ k * $ 7 # o o O $ # # # # # # # o $ w w s t t r 0 ",
"1 r Q l w w 1 O X X X X X X o o $ $ $ $ $ $ & $ # = K ~ p e e e n m p m ! ! V x * # = X X X X # # # # # # # O O $ r w x C | l w ",
"7 7 r r r r w O X X X X X X X X O = $ $ $ $ # # @ 3 B N 4 4 q e 4 e e n V T N k # $ = $ $ $ o o O O # # # # # O + w w R x l r r ",
"w r l r r w w O X O X X X X X o + = O $ X # & @ o O O X O O X $ & O X O o O O # # $ $ # #     # O O O O X O O O + r r _ x V k k ",
"w w r r r r t X X X O o o X X X o # O + o $ 0 # X o X X . X . ; X . . . O . X O X $ & O X o X # # X O + + $ + + @ t r x x v l k ",
"k Y Y W v r t X X X o o X X X X X # O + + = = O o X   X . o . X X X . . . . . o X O & : # # X # O o O O X O o X o t r k k k k k ",
"v L R ^ C k 0 X X X o X o X   X X X o o o = # # X o q t b q ; ; $ 4 b b n n @ o X X # & $ $ # o X X X X O $ X X . + 0 _ ^ ` ` v ",
"v C C / C r 0 $ X o O X o o o X X O O X o + O # X X - - ; - & = - 3 - : 3 ; + o X X $ O   X   # X X X X O O o $ $ o w ^ { ^ / F ",
"C L ^ ^ C r t = # O O # o X X X X O O X X # o + X X - ; ; 0 v L v 0 & ; ; 3 $ +   X + + O X X o O O X O # # X $ O o w _ ] W ] Y ",
"v R L W C r 0 O # o o o O X X X X O X X X # + $ # X ; 3 ; w o.@.O.Y & ; ; ; $ o X o + + + o X X O O X O O X X o @ 3 a ` [ ^ ] C ",
"x C F C L 9 t O o O o O X X X o X X O X + $ $ + X X = 3 ; 0 ' +.o.k & ; ; ; $ o X + $ $ O O O O o o O O X X X X $ w a W ` ` ] Y ",
"v v x k v E F 1 # o X o X X X X X X X O o $ + $ X X - ; ; 0 C  .' k & ; ; : $ $ X $ # +       X O O O X X O O O = r L v v R L v ",
"v l v t C k / C $ o o o X X X o X O X X X $ o # o o - - - ; 9 C v 7 & - $ ; $ X X $ + o o o X X O O O X o # o X k ' ^ C v L L C ",
"k l v k k 0 0 # X o o o o X o o X X X X X # o + o   $ - - $ 0 r t = & ; ; ; $ + X = $ # o o   X X X X X X X o X # 7 r v C L C v ",
"k k v t k 0 0 X X X X o X X X X X X X O O $ o # o X - - - & 3 3 3 & $ ; ; ; $ + X # # X X X   X X O X o # o X o # = k C v C x x ",
"l l C T v = 0 X X X X X o X o o X X O X o $ + # o   n b n - X X + X ; q q 4 + o X O # # O O X o X X X o X X X O # 3 0 C Y Y Y V ",
"t t r k t 0 ; X X X X X X o     X X X X o + # O X X & - : - $ + o o - - : & . o X X O X X X X o X X X o o o X O # 3 t l v x k k ",
"; 0 0 0 k 7 0 o X X X o o o o o   X O X o $ o # X   M M t M n 4 - - - b b 4 . .   X # + X X X o o X O O O   o   X 3 t k v l k k ",
"; 0 0 t k ; 3 X X X X o X X X X X X X # O $ O o   X $ - & - - & o $ $ - $ @ . .   X + $ + X   o X X O X o o   o # 7 r k l k t t ",
"= = 0 0 k = ; X X X X X X X X X X X X # + $ O X X X                       . . .   X + O X X   X X o o X o o o X O 0 k l l t r w ",
"& J t w N = 3 o X X X X X o X X X X O X o # o O X   X   X         X               X O O o # o X X o X o o X . o X = w l C X.r 0 ",
"$ 3 0 = ; = = o   X X X o   X X X X O   X # O O X o 4 4 q q : : : : o o o + -   X X o o X X X X X X X o o . X . o & 0 r r k 7 ; ",
"+ = = = ; = = o X X   X X X X X X X X X X # X X X $ = ; ; ; ; ; : : ; - - 4 4 X X X # O # o X X X X X X X X . o X & 0 w w 0 0 ; ",
"o $ $ ; = & ; + X X X X X X X X X O X O O $ + o X $ N t 4 + $ $ o + : - q n q o O X # X o o X o X X X X o X . o X ; 0 t 0 = & $ ",
"X # # = = = ; X X   o X X X X X O X X X X $ + X X $ $ $ = $ + $ + $ ; ; - + $ $ O X # o o X X X X o X X O O o . o 3 0 0 3 & & % ",
"o X + # ~ = = o o   X X X X X X X O O O # + + X X $ # # + $ $ # $ $ : : - o X ; # X + # O O X o X X X o o + + o o 3 r J & & & & ",
"  X O O $ + o X o X X X X X X   X O # X + + + O X $ X O $ $ # # + $ ; : - = 7 = # X # o O O X o X X X o X X O + X 3 1 & # O O # ",
"    X o + X   X o X X X X X X X X O X X # # # X X = r = $ = & $ $ $ ; : & 7 1 = O X $ # O O X o o o o X . o @ + + 3 & $ $ $ X X ",
"  X X o X . . . X O X X X o . o X O X X O O O O O = r % # + $ $ + & 4 4 = 7 1 1 % O & X O o . o o o o X X X O X X X X X . . . O ",
"X       . . . . O . X X o . o o X X $ X X X X O + & k % # # + + + + : 4 - # % , # O # X o X . o X X o o X . . X X + @ o . . X O ",
". .   . O o O o . o o o o o o o X O $ + X X X     % % # # # = # $ - & $ $ = = = % O $ + $ X + X X X o o o O . . X @ o . . . . X ",
".     o O O O O . . o o . . o . X X $ X O X X X X = O O O X X X o O O o O O # 1 % O $ + + + o o X X X o O . . . X o X X . . . . ",
". . . . + + O o . . . . o o o   X X # + X X X X # = # # X X X X O o O O O o $ , @ O $ O X o o X X X o X X .   . o + o X .   .   ",
". .   X O + @ O o o . o . o o o X O # # X # X X X % = % # # # # O O O O O O % , @ O @ . X . X X X O X o X   . . o o . X .   . . ",
". . . . o O O O   . . . . o   o X X # O O O X X X % # # # # # # # # # @ # # $ & # O $ @ $ O X X X X O X     . . . o X .     .   ",
".   . o O O + X . .   . .   o .   X # X O # X X X # #         # O X .   . . % 1 % O @ o X . X X X X O   .   . . . X . . . . . . ",
". . . . . X X O . . . . . . X .   X X X # O X X o & $ + . . . o o . .   : o - ; # @ @ + o o X X X O . . O . O . . . . . . . . . ",
". . . . . . X . X o o . . . X X X X O X X X # X X * # X .   . . . .     o o $ = # @ $ $ . X . . . . . o O . . . . . . . . . . . ",
". . . X . . . O . X X X . . . X   X # X X X X # X % o .   . . o + .   . . . & 1 $ O $ + # X X . . X . o O . . . . . . . . . . . ",
". . . . . . X o o X o o .   X . X o # X X X X X X = 3 & + + $ $ $ @ $ $ & & ; = $ @ & + X e # . . . . o o . . . . . . . . . . . ",
". . . . . . . . . . . . . . X . X X X X X X O O O * = = * * & * & & & * = = = 1 @ @ $ @ O 3 o . X . . X . . . . . . . . . . . . ",
"o o o . . . . . . . . . . X   X . X X X X X O O O X # % # # # # # # # $ & & % & O @ $ @ o o X . X .   . . . . . . . . . . . . . ",
". o . . . . .     . .   X   X X X . . X . X # O # X X X O X O O O O O O O O X # O + @ . o o X . . . .   . . . . . . . . . . . . ",
"o o . .   . . . . .     X X   X X . X X . X X X X X # X o O O O O O + O # O O X O o o o o o X . . .   . . . . . . . . . . . . O "
};
