/* XPM */
static char *_09d312e5b2c449db85344a61e92e6ae[] = {
/* columns rows colors chars-per-pixel */
"100 100 56 1 ",
"  c #9D5D21",
". c #A76525",
"X c #B16D2A",
"o c #A46224",
"O c #8E521B",
"+ c #995A1F",
"@ c #93561D",
"# c #A16023",
"$ c #AA6727",
"% c #9F5E22",
"& c #A66425",
"* c #B36E2B",
"= c #91541C",
"- c #9A5B20",
"; c #96581E",
": c #9C5C20",
"> c #98591F",
", c #B46F2B",
"< c #A05F22",
"1 c #92551C",
"2 c #A36123",
"3 c #AB6827",
"4 c #95571D",
"5 c #8F531B",
"6 c #AE6A29",
"7 c #A86626",
"8 c #B06B29",
"9 c #AD6928",
"0 c #B7712D",
"q c #B6702C",
"w c #B8722D",
"e c #BA732E",
"r c #BB752F",
"t c #BD762F",
"y c #BE7730",
"u c #C07831",
"i c #C17A31",
"p c #C47C33",
"a c #C37B32",
"s c #C67D34",
"d c #C77F34",
"f c #C98035",
"g c #CA8136",
"h c #CC8237",
"j c #CD8437",
"k c #CF8538",
"l c #D08639",
"z c #D2873A",
"x c #D58A3B",
"c c #D4893A",
"v c #BD7730",
"b c #D78B3C",
"n c #D88D3D",
"m c #B8732E",
"M c #BB762F",
"N c #DA8E3D",
/* pixels */
" .XoO+@#$X% &*o=-;%.*%:&*&@->:o,%:<*o;++;o*#: *o-;-1o*2::*.%;-=o,.% X324-5.,$<%X6.@ =7X6<<8X71:4.8,<",
"29-;@ ;@+o6#8:>4%+@+#8%* >@:+@>%* * >@+-@> X X%>1>:@;:X%8<+@>%@>:8#6.-4>%;>:8&9$:;>2>> 9336 >>2+> 36",
",#<%@o:+o-0qo<<1#<;o-*q.<<1##@#:9,3:#@#2@# $,9-#@<#=%<&,*-2;<#1%<oq0-&::o4<220w & -2+<&<ee<&<-o %. e",
"62oX<4 97;06&o824-77;q63#9o4>&$+*3X-$o>;o$:83X>7o>4o$#$9,;.7+428o&80>$6%42,&2*w+38#>2*$%qw%$,2>2X9+e",
".0$6.:%86,670$67  88*87038$ :8X6*.q686::389,&X966::76$q.6888: 76$076q6X< .X9e39w8*#%&*8r99r8*.%2*Xw8",
"%#*Xo& X*6-#%,*o& 8*X+2 ,*72%6**>2+**9%<3X*>2;XX9%27X*+2>X*6 &oX,%#-6,*<.&*0o# 6q,#$oq0$#<3wqo32q06%",
"#>26*:$,#  2>23*:.02%:2;#$,%2qo<+o+#&q##,o#>2+<2,# *.#42-%20.-*32+2 %2q9:,8o+&# oq9-X*&:oo &q*:6q&%2",
" 1 #X*e##@-%4-#6Xe2#4-%;-#9*w&#4>%;>#.00.<;4 ;4<o0X$<>4 +4#2e86#-4%:4#2r,,2%4<%;#otXwo#;#<;2or*t&o;<",
"&%3.$r0:7&&.%67.rr:77o. 67#rt-33#&%9$ rr 79%o<$$-re%76 .#.7-rr&76%.&&$ wr9$6<7$o620yX362$$267quw28&3",
"+X82w3e#6q<+8*.06r28q2+9,7*6079q.>$,$9X*3$*$>.*3.q66.,$>o,92w3q&*8+<q82r9r&*,:%w*2u3yo,0%%w,oi3io*e<",
"<7,tX9.y0*%2$,tq3.yw*<2&,tw$&re*#o#*ee.&weX#2<8weo70e*2#<X0r&$,t*$2%*wu$6,u0922Xei6XXie8oo8rpX*8pr*2",
".XyX;2:60r&$6uX+#%$,y&$9yX:2<&*y&$7yX<##%Xt77otXo%#-Xt$72t*7 #+8u6$&tw6:2;,i,3.tt,:&+0uw3$ru0-. ,yy7",
"$02  $< #X0.r&% 7# #9wot.< .#:<$r#r.%:22:%.r<e7%-#&:%&e#w3<:<7:%or.0X2 #3<%&r9q0&%#6#<.eX,r.#282<.w0",
"y$7o-7o%62au87&-$7 92yuX77+$$-$oeyq&$>77>7&,tw#$+..>&.8tt#3:.7+&78uao6%&7 &39ps.82o3<&83sd3X7#9&&*7f",
"w.9t7<&,X%ar66e3<oX*%ue,306%26,#t0w.,9<<9,&0qe<*9<%3,3Xqy XX2%$e96ea *q.#3yX$yp<qr329yq&ip.qu629t02d",
"Xi*w8o&rwtw*a*e,oorewe*a*eqo2reqy8u*w02#00Xy8r,0e##,08uXw00e2o*wXaXwrwt.oXe,pqwaey9&Xtws0wdwyX.6yepr",
".$ye$6oete#37ut69&etr#3&ut*3.0ty<9<yrq..,et<3%re,&78wt#3%rtwo39ry7$2wyr&89ri63.wiy3,9ya*3$0pu6,9upr.",
"$%$0e#Xu3&o3<30r&8i9.o9%3,t79i6$#9<$6t77t6$%$<.3y7.e8$ 3#.3u62rq$<3&&3u,2re629$.6iq&ey8o69&8ir&wp87$",
"&+o$eqp$$:2.:2$wwp3$:#. #$qra6$ %.%%78tt87 :&%:73uwX.<-&<:73a0w$2-.2-$$s0t3. $. 39dwp9$%$$%36deg66%7",
"9o*8*sio*668&0X8dso*X98&wX$sd2,q79.q*2psoXq&9.XX<pp&6q26788#sp88qo689*&idq*q7X*903igr*03*,9wXyhp3w6,",
"<we3a,p70y.#0t8i0s3wu3<qyXtwaXqy8%Xt,*rr**rX 6r,9uq06r* $tq$a,u9ew<&yw7sqs9tt2.ir3h,g9yi&&ay9jqj3tp7",
".Xtst0*fir&$Xtdaq*gar.36tds*8dpe737eps88pae77&wip98iae$7&wud8*uprX7&eif,wufu,$7epjetujpw99wpkutrksy3",
"80dr 7#0is9*0gt<$&*uf9*qfy2$.6td6X6dr....es88$pr3o.#esX8$ptX2.%ef0X9pa023%yhr*8sdy#9<iga**sha#6ougf*",
"6i3o2*&o7ry6s6&&X7o7wi3d8&o83o.,p7pX&2332o8a&i*&#.9#29a.uq&2.62o9p6tr$o.*&.6s,ti677w7.8swtd87$w$78pu",
"dX67%97#*3hfw89%69#*3ffr66:66%X$asy38:99:6$rpi78:$3-33wpp78 $3:$90dg3*279<3X,hk8077X&$q,kl,03&*$$0*z",
"a3,s876rwohpqqa*$6we&fpr,y,$9,r7ait6r*7.Xr9tyi&w*$&8e80yp20q3.8u,*ag2wr6$Xd06dj.ta,9,st3hk3ydq9qpu7l",
"0d0u0.3pyuawh0ut$$sutpejquy$7puedqfqyu&&uy,d,p0ti&&rt*dqiwti..wt,g0iuya97wiehtidys*$wpyjuijyse3qdifs",
"9*du8*$usp7*Xgaq*3iss7,8gaw89tad.,.diw33wus.*opuw79qyp$Xoait.8XusX8.asu$,*ihwX9agpXw*sjyX8iks*e*sjs6",
"626uy7qf*3$8o8ia9qg,6$X2Xya8Xfq8&Xo8qa66aq6#6o3*p93u06%6o3XdX$yy626$$8fq$up*&*63*he6yf,$,*$,hu6rkq68",
"$%$6awh86#.6#38ath*82.6#78yudq8oo92o9qii092<$##9*arw3&%$2<38dey97%3.#86hws89#632X*lrh*X266oX,lrz,*o9",
"*.q,wjf$0X,q7e0qkj$w,Xq7r08kk7e03*$w07hh7q0.X$,q&gg$,w&X3X,&gg,,0.,*6q$dkr0w3006eXdzier6ww6t0pxg8t*e",
"&tuXsrh3yp87ypqpyj9ys,.tswuuf*rp0&waw,iiq0i0o*iw6srw,iqoXie$deaXut&9it$hrf*ai$9si6lrkXas96spXztc6af8",
"30ihstrkdu360ahgtrlfi96,agje0kfu966udjqqgsy93$tpg,qdst6$7tahqwdduq3$ypkrtdjsr66ufzaafzfy88ugcfppxhp8",
"qrji26&yfgXerlp&8$rdjXeelp$69,pjXw*ji9339ug*q6fu87$&ug,q3faq&32ujeq8ddt&62pluw*gks.*odzdwqfcf&,7sljq",
"XfX$.q$$6piXhq9$09$6ip6j097,676rd3f0$.68&$0d7aw$o38o7*d$ur$&7*&7*f8yi67$q.3,hqyf*93t96,httjq69v66,hi",
"fwX9%X7&0Xzht*8<X6208lgi*X<X6#,8fds6*%66 X9aps3X $9:36rpf3X%$9:38efk8q&7X<9*ejz,0$7*.90wccew9.,$3e0x",
"g*0d*6,ut.cjwedq6,ry$kjyeaq8X0u9dgs6yq86,y8isp7t*9$Xt,esf&w083Xaq,gkoty,6,fe*kc7up0Xwfu6cx6igwXwda$b",
"rhwat$Xfipgylesi68hpyhyzwpp99gaej0l0id$$siqjqgqyp77uy,g0swys$$tiqhedius*$tprkuffagw6tfukpdkify6whpgh",
"*ylaq*6akj6ercswq6phl8eecdr*8ufk6r*lst96rpj809hpe39qih*0$hsy$8,ikwq9gja6,,pcuqXhzs*e,dxfq,hbfqrqdxj*",
"8&qhaXwlwX9*.0hs*0zyq3*owhsq,ku0.X20ugXXduq#6&*rf88ui,%9&Xeh*6ud*28380k08ij07,X8wzr,uzr9q,8rxu,txe*X",
"629XhylqX&3,&6*gykeX.3,.9*sigrX.7*&76yspt6.28oo90pry9.26&29qfep6$287o6,krh*6o*6&*qcrzqX&**.*0xtx0,.X",
"0.00tzj6r8we$eerxc8t*qe$er0cc6tq6w30e6ll9eq$,9*e$jj60,&q96w7kj0qq.q,9w9hzyww$ee6t*gbper9tt9twfnhqy8t",
"7ypqdul$is*$uhrspc3ifq7tjtysk8ifw7eft,dd*rsw&qpt3fu,0s0oXar7htyqpr&8iy7kufqsi38pp6zukqsp68pd*zix8ssX",
"9rdgjiazgd6XtfhziichfXXrdhcutcfsX8*sdleelsaX96ipjwwhai,33ipherhsae93pdkuuhgfy88shzfpjjjaX*skljsgcjf*",
"0ujf.,7pjj,yyzg9,9ihk*yrlg6*6rfk*t0hd*66Xsg,r8fp039$pd,w9dpe76&phwe8ffi.*&fkieqgkf707hlfewgzj707hzh0",
"*h06$e66,ga*lrX3rX9,ds6kyX3w*38is3fy67**79rs$ay9.9*&30s7uu9.3,.3qf6tsX39e$60hqtjq86y9XwjrtkwX6u8X0ky",
"gr,92X3.wqxja0X2*8&w,xjsq,2,820*jffX*<66%XXspf6X%39 98yph6*#$9 9XtdkX,o3823,tjcww$$,790ezxrw67,33ewb",
"jXegXX,iu3xzrygq*qti9zlitd0X,wa8gjpqi,88*uqifs3t*638yqedg.ew638a0qhl.rt*8Xfr*lb3isq*qgi8xn8ah0*wdp3n",
"yhrdu6qjpikicrfsXqkdykibedfXXjswzez0af99di,kwj,yd$3au*jef0yd63yiqjrftuf,9udtjigsihr8igujsfkihiXtjpfk",
"qicsq08dll*tunfr0Xdlc*ytngy,Xahx*y,cdtX8tsl*e6kst96wak,w9jdu3Xqiltq6hhp6,,pxp0*jcd,eqfbg0qjng0rqfbl,",
"*7wki,wxtq8,$eld0exiw6,.rkfw0lpe7,.eaf,,daw28.qygX*ipq<6.*rj*Xufqo838wl0Xuke7,XXexeqycr60,8tbu0tbt,*",
"*o6*jezw*7607Xqjult,$9078qfahi*$$q7$Xuaau87&*..6epru67o8.o9qfws832X3o6qjwj*8&,8.*0cecq*.,*.,0xrbm,7X",
"e7weuxk8t*et3ttynbXuqwt9tywbbXuw8r9wtXcc8r0306*r3lk80q&q68w$kkwqq.wq9w9hcyww$rr6t,hbprr9yt6yefnk,yXt",
"$udwfsc9af,3ajydfb6sgw3uluigcXahr7rgu*gg,yfw.qst3haqwd0&*at7juuqst.6iu$ladqsi36pp6zpk,dp68sd*cpx6sd*",
"8yfhzadcjg*,ugjbadbkh**yghbaabhf,Xqdfcytzdp*98askrrkaa,39ipjyrjsar69pfjpukgfyX8dhlhalkja**sjlzpjckgX",
"eulh30$flkquuck808slz,iyzk,,8ujkqu0jg088qfhqrXgde$96dfqe9dsy78$dheeXdgp.,7glie,glh7w$jlfe0gck$w$jcj0",
",jeX3r6X0ka*zuq6r,X0jd8zaq9e,6,df9ga*3,*$Xud$ai8$6*.6rs7up8$3,.6wg6tf*99w78wjqtk0X6t9,ekerze,6t8*ezy",
"htq$oX9.00nks0X&,X&w0bkg0*o,Xoq,lgh*X#88<8Xdsh88%39%3Xipj88<$9<$8yflX*2$62$*tjcwq.$*7$0rzxt0$7,370eb",
"lXtgX0qiu9nxtug,0wya8ccatsqq0wa*glpwi*,**uqihs6tXX86tqegf7eq889a0qjk7erX*8deXzx3up,q*du8xb8if,qqsa3n",
"uhrfi90jsyzazMgd8qldrzibwdg88ksqcec,af93diXl0jXud3$auXhwf*td97yi,gegwuf,$ysegigiigr3ufyfsffugu9rhaak",
"wpxd00XdzxqysNgt0Xdlbquingy,*ahx0ywxft88rdzqr*kst390ak0w6jsy$6qiku06hga6*,pcdw*jzs*0,dch0qkbf,w,dcz,",
"*7tzi0wxiw6,7uxseebsr6,&uzde0lfy7*&ydfqqddr28&wifX*udw<9&qtg**thwo6$Xrk,,tkt7*6*tcw0tcy9,*8yxt0wxy,8",
",.6,kwlrX$8w$8qlylu,$6w36qhifaX330$$Xiiii87.,7&9raei6.o*.o3wsqs87oX3o9,hqhX9&*8.60lqlq8&**.8qz0zw878",
"e.0euxlXy8ry$etunb*u*wy3etexb*uq8r9qtXzzXe,$038e3ljXq*oq99w$kjw,*o0,$09glt0q&re$rXgcaww7rr$rqdxhXt3e",
".tdwdfc3ps*7ukyphn9pf,7tluyhc8ag0&wguXhh8tfq2,pt7jp*wd,#6ir&jatqpw23yy7jppqpt&3ua9kpg,pu7$upXkpz3pa3",
"*iffcafljh,0ahgnafcjhqquhfbapxff0*0dscyylppq6Xapjtrjiiq66aagyejiar66psgptksduX8sgghylfgaX*phglujjgfX",
"eyjj9w3gkh,uyll,w6flk*utkl0,Xajjqyqghe86wfd,r8ddr368ss*w3ssy.83sdw06pds.,$fgyw*shg707hhpqqsjj$07hjd*",
"8jtq7e6,wzu8la03e**wkp3ksw9w*60gp7ss,3**$*ip&upX79X&8taots8$$X&8ed$0f*6$q&*eg80j0*3w$,whqqke,$w3*0jw",
"gu*3o83o00bjs06&*8oq0bggq82*82,,ldj*X<96<68fah66 73 76iig66%.3%.8ypjX8#.9#.Xtfkq*o.8&&*ejjw*&&87o*0l",
"l,rd8equu3bbrydXewru8zxita*wequXgls,y*qqXt,ijp9e8*X3eqwgd.q*X*$yq,hj&wr8q3aw8kz7ty8,6at9lc9ta8qXyt7z",
"ugwdi$0harzikegs9*jpqzic0dd96ga*zwzXid$$su8kqj9tp7.uy8f0f6rp$&ruXsefqrp*&ra0syfetd0.rseuasursr.0dtwf",
"wgzs0*8slx0ygxfr,8skbeufbgt*Xigceuycdt96rpkrr0jpe$3,uhrw*hpt73*ygi0Xhfu96Xiks0*jhi6*8pjhqqjja8X6uhhX",
"8.izueqcse6X.abie0zgu3Xopxpeqjhi&X#ihf**sgy<62rss6*tgr 32wid6Xehe<3.*yh8,ejy&83Xyk*q0ku$699ykq,Xjt8$",
"*.3,k0jt878w$6qlwgiX$6w99,htpp873w$78puua9..,.&3ttqi3&o*.2$eu8p9&o872$0dXg87&X9&$qg8h*$&86&$*g9f,$o3",
"02,quck8r$0w.qwycxXy3,0.,wezc*r66q78w*llXq9.X$$09hgXX3#8$&,$gfqX6<X82,$fhrXX<,,o06sjuX,#,*#*6igp3,#X",
".wawidl$iu8$ehtyhx$up,30kt0gl$us,7,dr9gg3epXo8uroga9,p6o9r02fuq,iX27we&fit*uq&7wt7diiXyq.7qt9iys.e,&",
"9udylydddg8XidicufgdgX8yduzuajas,9qpyjrthti,78itdrwdwy,.3uritqfwyw$7iuuiwgeit3$aaudwgeiy$$uiedqatyy.",
"*rdh907ggd8eegj,q9dhf6e0fj0X6ifsXw*pfe99wda8q9ipe738py9*7yito6$aiXX7yaioX7saw89tps&*&sar63eiao8#iuw.",
"6dr*oq380ke6fa,.q66qjt$dpq7,89,dt7ypX&66&Xiro0a6&79#6re2,a9.&9<9wu&*s8$&X<80a38d*9oX26,i99aX9<92$6i$",
"ar8.2972X,laa,326$2**lud*9#63#8Xhtf63%$$%$9pwd33:o7:&$yqs$$:2.:2$ees93 27%29wusX9<#$<#3*yi*$% &%:.3u",
"h90y$0X0w$ll0wy30q,e9gkr0r9q08e9aht*0$**$0Xedu7,$86&*X,pioX968oq88sd2*838&w*$dgoqq$6.0,&sdoXq&3.88%i",
"ey0pe&XsyXgrsqpu.6sy6hrhXii&7pt3h,g3tu&&ye$dXs.0to#ww$iXa&qt&%qe9y,a$0y3<,y*rwi80u8<,t**we*Xe8:308$e",
",agu86$udk*wpha063udk,rijp093rpj0e0giq77qudqq*syq&.8ra0*9pt02&6warX3suw&73rpuX9sae.$7wiu33uyqoo2*et&",
"$2rg0,6hu,732tke0Xgaw.9%tjy,6ssr<3%rpu69taw:. qyy79qaq>& Xru76Xp, &29wa76Xp0<.o30p$86aq#&2#Xy$$or8o%",
"6o&9s3a0$o$*&.6d8ir3&7*&&9p*ry3o&*&o7r**r.##6#<&q,3e&<%3# o*0.y.#%$o%o8t&i$2<$&<29y2u$# oo:<.e%w. + ",
"8 96wsd$,o88<6X0fh$q&68#3X*fg3,7.62.83ss$8&<32#6&pu$3o 72<9oau8$.-$$ 9ouu*$$-33:9&ru,.7+77>.2*wq%&;2",
"2XtXwid2ww$o*aq,pg2wr3o8p,6pf20y929y,2aa2*r$<70* uro9r. &,8:ie69w3%2X*%ur,3q9<#6,#twq.*$ %78#*Xq-3.-",
".0tqd0iyti77wy0g0iiti$7qy0d0rpwt9o6e0i,,i,w9#.0,r,8y8q9#o0,e06u6qX2#w0qwXiXw,2#e0,t9y8,*%%**3w&q988-",
"3*ta78oiir.8Xys66&uay.X6tpX$&rar$X7eu,&&*y0.3oqr,#o3r,&$#,e0%..t037#,we%$otw8.o*er%$<eq6##9*q:o+,X3 ",
"&rq$:3276p8otr3%3&.9p*#rt3%$&o$u*<,r7%&.%.wX 6e&%<o-oqX:3eo<%2+o*q<.r.o%&+.X02&r3&-o>o$,##,.<4%;%2,<",
"0,.#:&% .3awe7o-.#:7$pqt7&+&2-..iXt&o+##>2oe6r22; <4<#,9r2#;:<4%#*Xr&#+-#> o8,e72++#;-<7X*. ;@:44:#X",
"io98<3.$8#aa96X#93782yaX99<3329o0uX73%77 $&6r*#7%&&:.&7eq .#o&-$..rr:$o2. 3$#rt:37%o:..:00-&o+<-#o;,",
"8X3w6 7w*2yXw$w*%.0*#y8r.q*%#q*<y$r#XX% X8%w.w:98 -96#*70:38<+3XoX3w%9*o-3,7690#3*&>7X.o362o9o4#3o-8",
"3we*.2#,wu$6et,32<,wu380tq9#<8qt686r,$%%$*w637wX3: &8q6$&wX3- &6,*.ow*6 %28q0.ow,6 %%3X,#<*87:-+.9X%",
"<-Xr$$#rq$ #+*u99or09:#;Xy87o0w8;<480X22806@ 43*8<2$q9=:47X*%&.w3; -o80%&.w6> -#60%&#,3>-++7X%<-8. 4",
"o-:o0%*3%:%.::ow#88<-%.::2qo3*<--.-+%8&&8%>>o+;:3&<6 ;;#+;-$$ X%>>#:;-.8:,#++# >-&X:,2+>%%;+2*-8o+;:",
"#1##3qw%.;#2@<2$0r<.+%24%2.0e<&-+<;-2#qq<#+4 >;#:qX<%+= >4#-qX&% 5% 1#:**$<<=<%@2 *,6<#1##12<8,,%&@<",
"-o6o$q0+3$<:o*.&qe>$3#:2,.<qw>$6#-#8.+,,+&9%>%$&@,8-#6%> .o@,82#9<> o.;,X7292- o$-**9#9o: o9<8*,-3& ",
"-39&w7*36*::$6.w7*69* -.6.q76X79<>#9.X778&$<;:$&3$o827#4-$.39o*27.>+6378&q233++897,o0&99++86.0oq79X-",
"%o9q<o+,X3-#260o2-X*9-2<9q.%-9*3:#:3*7--.X7:%-787>-2X.:%>769;%<*$< +76X>#%,9o -78,+o:q6. :78q:o-,X$:"
};
